<?xml version="1.0" encoding="UTF-8" standalone="no"?>
<svg data-v-423bf9ae="" xmlns="http://www.w3.org/2000/svg" viewBox="0 0 560 91" class="iconLeft"><!----><defs data-v-423bf9ae=""><linearGradient data-v-423bf9ae="" gradientTransform="rotate(25)" x1="0%" y1="0%" x2="100%" y2="0%"><stop data-v-423bf9ae="" offset="0%" style="stop-color: rgb(66, 30, 86); stop-opacity: 1;"/><stop data-v-423bf9ae="" offset="100%" style="stop-color: rgb(188, 96, 131); stop-opacity: 1;"/></linearGradient></defs><!----><g data-v-423bf9ae="" fill="#ffffff" transform="matrix(6.1224488604322,0,0,6.1224488604322,98.18269290868452,10.852390965115568)"><path d="M2.93 0.70L3.91 0.70L3.91 10.50L2.93 10.50L2.93 5.60L0.98 5.60L0.98 10.50L0 10.50L0 0.70L0.98 0.70L0.98 4.62L2.93 4.62L2.93 0.70ZM5.75 0.70L7.81 0.70L7.81 0.70Q8.22 0.77 8.48 1.08L8.48 1.08L8.48 1.08Q8.75 1.39 8.75 1.81L8.75 1.81L8.75 9.39L8.75 9.39Q8.75 9.81 8.48 10.12L8.48 10.12L8.48 10.12Q8.22 10.43 7.81 10.50L7.81 10.50L5.75 10.50L5.75 10.50Q5.35 10.43 5.08 10.12L5.08 10.12L5.08 10.12Q4.82 9.81 4.82 9.39L4.82 9.39L4.82 1.81L4.82 1.81Q4.82 1.39 5.08 1.08L5.08 1.08L5.08 1.08Q5.35 0.77 5.75 0.70L5.75 0.70ZM7.77 9.39L7.77 1.81L7.77 1.81Q7.77 1.67 7.64 1.67L7.64 1.67L5.94 1.67L5.94 1.67Q5.80 1.67 5.80 1.81L5.80 1.81L5.80 9.39L5.80 9.39Q5.80 9.53 5.94 9.53L5.94 9.53L7.64 9.53L7.64 9.53Q7.77 9.53 7.77 9.39L7.77 9.39ZM12.60 0.70L13.58 0.70L13.58 10.50L12.60 10.50L12.60 10.50L12.57 10.50L10.64 4.03L10.64 10.50L9.66 10.50L9.66 0.70L10.64 0.70L10.64 0.71L12.60 7.18L12.60 0.70ZM18.02 1.68L15.47 1.68L15.47 4.62L17.51 4.62L17.51 5.60L15.47 5.60L15.47 9.52L18.02 9.52L18.02 10.50L14.49 10.50L14.49 4.62L15.47 4.62L14.49 1.68L14.49 0.70L18.02 0.70L18.02 1.68ZM22.36 0.70L23.35 0.70L21.63 7.13L21.63 10.50L20.65 10.50L20.65 7.13L18.93 0.70L19.92 0.70L21.14 5.17L22.36 0.70ZM28.10 4.76L28.10 4.76L28.10 4.76Q27.92 5.00 27.55 5.11L27.55 5.11L27.55 5.11Q27.93 5.24 28.10 5.49L28.10 5.49L28.10 5.49Q28.13 5.56 28.13 5.61L28.13 5.61L28.13 5.61Q28.13 5.67 28.13 5.74L28.13 5.74L28.13 9.38L28.13 9.38Q28.13 9.84 27.80 10.17L27.80 10.17L27.80 10.17Q27.48 10.50 27.02 10.50L27.02 10.50L24.19 10.50L24.19 4.62L25.17 4.62L24.19 1.68L24.19 0.70L27.02 0.70L27.02 0.70Q27.48 0.70 27.80 1.03L27.80 1.03L27.80 1.03Q28.13 1.36 28.13 1.82L28.13 1.82L28.13 4.48L28.13 4.48Q28.13 4.55 28.13 4.62L28.13 4.62L28.13 4.62Q28.13 4.69 28.10 4.76ZM27.15 9.38L27.15 5.74L27.15 5.74Q27.15 5.60 27.02 5.60L27.02 5.60L25.17 5.60L25.17 9.52L27.02 9.52L27.02 9.52Q27.15 9.52 27.15 9.38L27.15 9.38ZM27.15 4.48L27.15 1.82L27.15 1.82Q27.15 1.68 27.02 1.68L27.02 1.68L25.17 1.68L25.17 4.62L27.02 4.62L27.02 4.62Q27.15 4.62 27.15 4.48L27.15 4.48ZM32.38 10.50L31.14 2.67L30.42 7.20L31.14 7.20L31.14 8.18L30.27 8.18L29.89 10.50L28.90 10.50L29.27 8.18L28.90 8.18L28.90 7.20L29.43 7.20L30.46 0.70L31.81 0.70L33.38 10.50L32.38 10.50ZM36.86 0.70L37.84 0.70L37.84 10.50L36.86 10.50L36.86 10.50L36.83 10.50L34.90 4.03L34.90 10.50L33.92 10.50L33.92 0.70L34.90 0.70L34.90 0.71L36.86 7.18L36.86 0.70ZM42.69 0.70L40.88 4.44L42.69 10.50L41.64 10.50L40.26 5.73L39.73 6.82L39.73 10.50L38.75 10.50L38.75 4.62L38.75 4.61L39.73 4.61L38.75 1.68L38.75 0.70L39.72 0.70L39.73 0.70L39.73 1.68L39.73 4.61L39.75 4.61L41.61 0.70L42.69 0.70ZM49.66 2.86L48.68 2.86L48.68 1.81L48.68 1.81Q48.68 1.67 48.54 1.67L48.54 1.67L47.01 1.67L47.01 1.67Q46.87 1.67 46.87 1.81L46.87 1.81L46.87 4.47L46.87 4.47Q46.87 4.56 46.96 4.59L46.96 4.59L48.54 4.59L48.54 4.59Q49.01 4.59 49.34 4.92L49.34 4.92L49.34 4.92Q49.66 5.25 49.66 5.71L49.66 5.71L49.66 9.39L49.66 9.39Q49.66 9.81 49.39 10.12L49.39 10.12L49.39 10.12Q49.13 10.43 48.72 10.50L48.72 10.50L46.83 10.50L46.83 10.50Q46.42 10.43 46.16 10.12L46.16 10.12L46.16 10.12Q45.89 9.81 45.89 9.39L45.89 9.39L45.89 8.34L46.87 8.34L46.87 9.39L46.87 9.39Q46.87 9.53 47.01 9.53L47.01 9.53L48.54 9.53L48.54 9.53Q48.68 9.53 48.68 9.39L48.68 9.39L48.68 5.71L48.68 5.71Q48.68 5.61 48.59 5.59L48.59 5.59L47.01 5.59L47.01 5.59Q46.55 5.59 46.22 5.26L46.22 5.26L46.22 5.26Q45.89 4.93 45.89 4.47L45.89 4.47L45.89 1.81L45.89 1.81Q45.89 1.39 46.16 1.08L46.16 1.08L46.16 1.08Q46.42 0.77 46.83 0.70L46.83 0.70L48.72 0.70L48.72 0.70Q49.13 0.77 49.39 1.08L49.39 1.08L49.39 1.08Q49.66 1.39 49.66 1.81L49.66 1.81L49.66 2.86ZM54.29 0.70L54.29 1.68L52.92 1.68L52.92 10.50L51.94 10.50L51.94 1.68L50.57 1.68L50.57 0.70L54.29 0.70ZM58.11 0.71L59.09 0.71L59.09 9.39L59.09 9.39Q59.09 9.81 58.84 10.12L58.84 10.12L58.84 10.12Q58.58 10.43 58.17 10.50L58.17 10.50L56.14 10.50L56.14 10.50Q55.73 10.43 55.47 10.12L55.47 10.12L55.47 10.12Q55.20 9.81 55.20 9.39L55.20 9.39L55.20 0.71L56.18 0.71L56.18 9.39L56.18 9.39Q56.18 9.53 56.32 9.53L56.32 9.53L57.99 9.53L57.99 9.53Q58.11 9.53 58.11 9.39L58.11 9.39L58.11 0.71ZM60.00 0.70L62.79 0.70L62.79 0.70Q63.25 0.70 63.58 1.04L63.58 1.04L63.58 1.04Q63.91 1.37 63.91 1.83L63.91 1.83L63.91 9.39L63.91 9.39Q63.91 9.84 63.58 10.17L63.58 10.17L63.58 10.17Q63.25 10.50 62.79 10.50L62.79 10.50L60.00 10.50L60.00 4.62L60.98 4.62L60.00 1.68L60.00 0.70ZM62.93 9.39L62.93 1.83L62.93 1.83Q62.93 1.69 62.79 1.69L62.79 1.69L60.98 1.69L60.98 9.52L62.79 9.52L62.79 9.52Q62.93 9.52 62.93 9.39L62.93 9.39ZM65.80 0.70L65.80 10.50L64.82 10.50L64.82 0.70L65.80 0.70ZM67.65 0.70L69.71 0.70L69.71 0.70Q70.11 0.77 70.38 1.08L70.38 1.08L70.38 1.08Q70.64 1.39 70.64 1.81L70.64 1.81L70.64 9.39L70.64 9.39Q70.64 9.81 70.38 10.12L70.38 10.12L70.38 10.12Q70.11 10.43 69.71 10.50L69.71 10.50L67.65 10.50L67.65 10.50Q67.24 10.43 66.98 10.12L66.98 10.12L66.98 10.12Q66.71 9.81 66.71 9.39L66.71 9.39L66.71 1.81L66.71 1.81Q66.71 1.39 66.98 1.08L66.98 1.08L66.98 1.08Q67.24 0.77 67.65 0.70L67.65 0.70ZM69.66 9.39L69.66 1.81L69.66 1.81Q69.66 1.67 69.54 1.67L69.54 1.67L67.83 1.67L67.83 1.67Q67.69 1.67 67.69 1.81L67.69 1.81L67.69 9.39L67.69 9.39Q67.69 9.53 67.83 9.53L67.83 9.53L69.54 9.53L69.54 9.53Q69.66 9.53 69.66 9.39L69.66 9.39ZM75.32 2.86L74.34 2.86L74.34 1.81L74.34 1.81Q74.34 1.67 74.20 1.67L74.20 1.67L72.67 1.67L72.67 1.67Q72.53 1.67 72.53 1.81L72.53 1.81L72.53 4.47L72.53 4.47Q72.53 4.56 72.62 4.59L72.62 4.59L74.20 4.59L74.20 4.59Q74.68 4.59 75.00 4.92L75.00 4.92L75.00 4.92Q75.32 5.25 75.32 5.71L75.32 5.71L75.32 9.39L75.32 9.39Q75.32 9.81 75.05 10.12L75.05 10.12L75.05 10.12Q74.79 10.43 74.38 10.50L74.38 10.50L72.49 10.50L72.49 10.50Q72.09 10.43 71.82 10.12L71.82 10.12L71.82 10.12Q71.55 9.81 71.55 9.39L71.55 9.39L71.55 8.34L72.53 8.34L72.53 9.39L72.53 9.39Q72.53 9.53 72.67 9.53L72.67 9.53L74.20 9.53L74.20 9.53Q74.34 9.53 74.34 9.39L74.34 9.39L74.34 5.71L74.34 5.71Q74.34 5.61 74.26 5.59L74.26 5.59L72.67 5.59L72.67 5.59Q72.21 5.59 71.88 5.26L71.88 5.26L71.88 5.26Q71.55 4.93 71.55 4.47L71.55 4.47L71.55 1.81L71.55 1.81Q71.55 1.39 71.82 1.08L71.82 1.08L71.82 1.08Q72.09 0.77 72.49 0.70L72.49 0.70L74.38 0.70L74.38 0.70Q74.79 0.77 75.05 1.08L75.05 1.08L75.05 1.08Q75.32 1.39 75.32 1.81L75.32 1.81L75.32 2.86Z"/></g><!----><g data-v-423bf9ae="" transform="matrix(1.0015333387586804,0,0,1.0015333387586804,-10.108165656579914,-4.145667182805802)" stroke="none" fill="#ffffff"><path d="M89.031 27.465L50 4.931 10.969 27.465v45.07L50 95.069l39.032-22.534-.001-45.07zM50 75.235l-9.677-5.587V58.474L50 52.887l9.677 5.587v11.174L50 75.235zm-24.354 0l-9.677-5.587V58.474l9.677-5.587 9.677 5.587v11.174l-9.677 5.587zm12.177-43.44l9.677 5.587v11.174l-9.677 5.587-9.677-5.587V37.383l9.677-5.588zM50 10.704l9.677 5.587v11.174L50 33.053l-9.677-5.587V16.291L50 10.704zm21.854 37.853l-9.677 5.587-9.677-5.587V37.383l9.677-5.587 9.677 5.587v11.174zm-7.177 9.917l9.677-5.587 9.677 5.587v11.174l-9.677 5.587-9.677-5.587V58.474zm19.354-28.122V52.7l-7.177-4.143V34.496l-12.177-7.031v-8.287l19.354 11.174zm-68.062 0l19.354-11.174v8.287l-12.177 7.031v14.061L15.969 52.7V30.352zM50 89.296L30.646 78.122l7.177-4.143L50 81.009l12.177-7.03 7.177 4.143L50 89.296z"/></g><!----></svg>